<?xml version="1.0" standalone="no"?>
<!DOCTYPE svg PUBLIC "-//W3C//DTD SVG 20010904//EN"
 "http://www.w3.org/TR/2001/REC-SVG-20010904/DTD/svg10.dtd">
<svg version="1.0" xmlns="http://www.w3.org/2000/svg"
 width="669.000000pt" height="373.000000pt" viewBox="0 0 669.000000 373.000000"
 preserveAspectRatio="xMidYMid meet">

<g transform="translate(0.000000,373.000000) scale(0.100000,-0.100000)"
fill="#000000" stroke="none">
<path d="M2395 3029 c-57 -16 -139 -74 -177 -124 -72 -95 -69 -38 -66 -1056
l3 -914 28 -53 c37 -70 97 -128 166 -161 l56 -26 908 -3 c1011 -3 971 -5 1065
65 57 43 75 63 110 128 l27 50 0 930 0 930 -34 63 c-40 74 -84 115 -161 151
l-55 26 -920 2 c-511 1 -933 -3 -950 -8z m1902 -31 c78 -29 152 -103 182 -182
l21 -58 -2 -906 -3 -907 -22 -47 c-32 -69 -108 -141 -176 -167 -57 -21 -62
-21 -962 -21 -885 0 -905 0 -959 20 -72 27 -139 88 -173 158 l-28 57 -3 907
-2 906 21 58 c29 77 104 153 179 182 54 21 66 21 962 21 905 1 907 1 965 -21z"/>
<path d="M3338 2723 c7 -3 16 -2 19 1 4 3 -2 6 -13 5 -11 0 -14 -3 -6 -6z"/>
<path d="M3244 2658 l-29 -31 38 28 c38 28 44 35 29 35 -5 0 -21 -14 -38 -32z"/>
<path d="M3418 2683 c6 -2 9 -9 6 -14 -3 -6 1 -18 9 -27 29 -34 107 -180 107
-201 0 -24 -34 -96 -50 -106 -5 -3 -10 -11 -10 -17 0 -7 53 42 118 108 108
111 226 204 257 204 22 0 29 -39 26 -150 -2 -125 -31 -266 -66 -325 -39 -67
-229 -235 -265 -235 -8 0 -10 8 -6 23 3 12 9 51 12 87 4 55 3 62 -7 45 -7 -11
-13 -51 -13 -90 -1 -70 -1 -70 -44 -108 -24 -21 -66 -49 -93 -62 l-48 -25 -50
30 c-28 16 -74 39 -103 51 -81 34 -146 81 -225 161 -113 115 -159 231 -170
429 -7 131 -2 159 33 159 13 0 37 -8 52 -17 33 -21 139 -109 170 -143 90 -96
114 -120 123 -120 14 0 11 8 -16 48 -14 20 -25 47 -25 60 0 13 -4 21 -9 17 -5
-3 -32 18 -59 47 -60 63 -200 151 -233 146 -37 -5 -57 -46 -68 -140 -12 -100
-3 -173 35 -288 13 -41 24 -75 24 -77 0 -2 -149 46 -175 57 -11 5 -31 11 -45
14 -18 4 -15 1 10 -12 142 -69 245 -143 397 -283 49 -46 117 -86 195 -118 32
-13 55 -27 52 -32 -8 -14 -184 -10 -279 6 -114 20 -244 74 -327 137 -36 28
-107 97 -157 155 -50 57 -91 99 -91 93 0 -40 76 -146 168 -234 73 -70 119
-101 209 -143 108 -50 187 -65 355 -67 121 -1 149 -4 154 -16 3 -8 5 -73 5
-145 -1 -136 5 -162 34 -151 16 6 17 17 13 96 -3 50 -2 93 3 96 5 3 9 29 9 58
l0 53 158 6 c208 8 317 35 452 112 119 68 168 109 223 188 82 118 75 129 -20
31 -100 -104 -169 -157 -269 -206 -79 -40 -127 -54 -237 -68 -91 -12 -247 -13
-246 -2 0 4 36 24 79 45 73 36 115 67 303 225 42 34 78 62 81 62 3 0 45 23 93
52 48 29 104 58 123 65 19 6 27 12 17 13 -32 0 -129 -31 -191 -62 -32 -16 -60
-27 -62 -25 -3 2 7 44 21 92 21 73 25 108 25 214 0 69 -5 143 -11 164 -8 31
-14 37 -37 37 -39 0 -145 -65 -218 -133 -68 -63 -67 -64 -104 16 -25 52 -105
147 -123 146 -8 0 -8 -2 1 -6z"/>
<path d="M3192 2598 c-12 -16 -42 -82 -42 -95 0 -4 14 13 31 39 17 26 29 52
27 59 -3 8 -8 7 -16 -3z"/>
<path d="M3314 1375 c-9 -23 14 -71 27 -58 14 14 7 65 -8 71 -7 2 -16 -4 -19
-13z"/>
</g>
</svg>
